<mxfile host="app.diagrams.net" modified="2022-04-12T23:57:17.970Z" agent="5.0 (Windows NT 10.0; Win64; x64) AppleWebKit/537.36 (KHTML, like Gecko) Chrome/100.0.4896.75 Safari/537.36" etag="dl4xwWa5yjsZI_CypFtd" version="17.4.3" type="github">
  <diagram name="Page-1" id="52a04d89-c75d-2922-d76d-85b35f80e030">
    <mxGraphModel dx="1422" dy="794" grid="1" gridSize="10" guides="1" tooltips="1" connect="1" arrows="1" fold="1" page="1" pageScale="1" pageWidth="1100" pageHeight="850" background="none" math="0" shadow="0">
      <root>
        <mxCell id="0" />
        <mxCell id="1" parent="0" />
        <mxCell id="K3WVoDSNx91NNgabxfpI-1" value="NoSQL database" style="swimlane;dashed=1;fillColor=#FF8000;strokeColor=#C73500;fontColor=#FFFFFF;swimlaneFillColor=#FFE6CC;" vertex="1" parent="1">
          <mxGeometry width="230" height="1030" as="geometry" />
        </mxCell>
        <mxCell id="K3WVoDSNx91NNgabxfpI-2" value="Dados do sensor" style="shape=table;startSize=30;container=1;collapsible=1;childLayout=tableLayout;fixedRows=1;rowLines=0;fontStyle=1;align=center;resizeLast=1;fillColor=#FFB366;" vertex="1" parent="K3WVoDSNx91NNgabxfpI-1">
          <mxGeometry x="25" y="40" width="145" height="420" as="geometry" />
        </mxCell>
        <mxCell id="K3WVoDSNx91NNgabxfpI-3" style="shape=partialRectangle;collapsible=0;dropTarget=0;pointerEvents=0;fillColor=none;top=0;left=0;bottom=0;right=0;points=[[0,0.5],[1,0.5]];portConstraint=eastwest;" vertex="1" parent="K3WVoDSNx91NNgabxfpI-2">
          <mxGeometry y="30" width="145" height="30" as="geometry" />
        </mxCell>
        <mxCell id="K3WVoDSNx91NNgabxfpI-4" value="Endereço do dispositivo" style="shape=partialRectangle;connectable=0;fillColor=default;top=0;left=0;bottom=0;right=0;align=left;spacingLeft=6;overflow=hidden;" vertex="1" parent="K3WVoDSNx91NNgabxfpI-3">
          <mxGeometry width="145" height="30" as="geometry">
            <mxRectangle width="145" height="30" as="alternateBounds" />
          </mxGeometry>
        </mxCell>
        <mxCell id="K3WVoDSNx91NNgabxfpI-6" value="" style="shape=partialRectangle;collapsible=0;dropTarget=0;pointerEvents=0;fillColor=none;top=0;left=0;bottom=0;right=0;points=[[0,0.5],[1,0.5]];portConstraint=eastwest;" vertex="1" parent="K3WVoDSNx91NNgabxfpI-2">
          <mxGeometry y="60" width="145" height="30" as="geometry" />
        </mxCell>
        <mxCell id="K3WVoDSNx91NNgabxfpI-7" value="Horário" style="shape=partialRectangle;connectable=0;fillColor=default;top=0;left=0;bottom=0;right=0;align=left;spacingLeft=6;overflow=hidden;" vertex="1" parent="K3WVoDSNx91NNgabxfpI-6">
          <mxGeometry width="145" height="30" as="geometry">
            <mxRectangle width="145" height="30" as="alternateBounds" />
          </mxGeometry>
        </mxCell>
        <mxCell id="K3WVoDSNx91NNgabxfpI-9" value="" style="shape=partialRectangle;collapsible=0;dropTarget=0;pointerEvents=0;fillColor=none;top=0;left=0;bottom=0;right=0;points=[[0,0.5],[1,0.5]];portConstraint=eastwest;" vertex="1" parent="K3WVoDSNx91NNgabxfpI-2">
          <mxGeometry y="90" width="145" height="30" as="geometry" />
        </mxCell>
        <mxCell id="K3WVoDSNx91NNgabxfpI-10" value="Frequência cardíaca" style="shape=partialRectangle;connectable=0;fillColor=default;top=0;left=0;bottom=0;right=0;align=left;spacingLeft=6;overflow=hidden;" vertex="1" parent="K3WVoDSNx91NNgabxfpI-9">
          <mxGeometry width="145" height="30" as="geometry">
            <mxRectangle width="145" height="30" as="alternateBounds" />
          </mxGeometry>
        </mxCell>
        <mxCell id="K3WVoDSNx91NNgabxfpI-12" style="shape=partialRectangle;collapsible=0;dropTarget=0;pointerEvents=0;fillColor=none;top=0;left=0;bottom=0;right=0;points=[[0,0.5],[1,0.5]];portConstraint=eastwest;" vertex="1" parent="K3WVoDSNx91NNgabxfpI-2">
          <mxGeometry y="120" width="145" height="30" as="geometry" />
        </mxCell>
        <mxCell id="K3WVoDSNx91NNgabxfpI-13" value="Condutância da pele" style="shape=partialRectangle;connectable=0;fillColor=default;top=0;left=0;bottom=0;right=0;align=left;spacingLeft=6;overflow=hidden;" vertex="1" parent="K3WVoDSNx91NNgabxfpI-12">
          <mxGeometry width="145" height="30" as="geometry">
            <mxRectangle width="145" height="30" as="alternateBounds" />
          </mxGeometry>
        </mxCell>
        <mxCell id="K3WVoDSNx91NNgabxfpI-15" style="shape=partialRectangle;collapsible=0;dropTarget=0;pointerEvents=0;fillColor=none;top=0;left=0;bottom=0;right=0;points=[[0,0.5],[1,0.5]];portConstraint=eastwest;" vertex="1" parent="K3WVoDSNx91NNgabxfpI-2">
          <mxGeometry y="150" width="145" height="30" as="geometry" />
        </mxCell>
        <mxCell id="K3WVoDSNx91NNgabxfpI-16" value="Temperatura" style="shape=partialRectangle;connectable=0;fillColor=default;top=0;left=0;bottom=0;right=0;align=left;spacingLeft=6;overflow=hidden;" vertex="1" parent="K3WVoDSNx91NNgabxfpI-15">
          <mxGeometry width="145" height="30" as="geometry">
            <mxRectangle width="145" height="30" as="alternateBounds" />
          </mxGeometry>
        </mxCell>
        <mxCell id="K3WVoDSNx91NNgabxfpI-18" style="shape=partialRectangle;collapsible=0;dropTarget=0;pointerEvents=0;fillColor=none;top=0;left=0;bottom=0;right=0;points=[[0,0.5],[1,0.5]];portConstraint=eastwest;" vertex="1" parent="K3WVoDSNx91NNgabxfpI-2">
          <mxGeometry y="180" width="145" height="30" as="geometry" />
        </mxCell>
        <mxCell id="K3WVoDSNx91NNgabxfpI-19" value="Aceleração total" style="shape=partialRectangle;connectable=0;fillColor=default;top=0;left=0;bottom=0;right=0;align=left;spacingLeft=6;overflow=hidden;" vertex="1" parent="K3WVoDSNx91NNgabxfpI-18">
          <mxGeometry width="145" height="30" as="geometry">
            <mxRectangle width="145" height="30" as="alternateBounds" />
          </mxGeometry>
        </mxCell>
        <mxCell id="K3WVoDSNx91NNgabxfpI-21" style="shape=partialRectangle;collapsible=0;dropTarget=0;pointerEvents=0;fillColor=none;top=0;left=0;bottom=0;right=0;points=[[0,0.5],[1,0.5]];portConstraint=eastwest;" vertex="1" parent="K3WVoDSNx91NNgabxfpI-2">
          <mxGeometry y="210" width="145" height="30" as="geometry" />
        </mxCell>
        <mxCell id="K3WVoDSNx91NNgabxfpI-22" value="Aceleração no eixo x" style="shape=partialRectangle;connectable=0;fillColor=default;top=0;left=0;bottom=0;right=0;align=left;spacingLeft=6;overflow=hidden;" vertex="1" parent="K3WVoDSNx91NNgabxfpI-21">
          <mxGeometry width="145" height="30" as="geometry">
            <mxRectangle width="145" height="30" as="alternateBounds" />
          </mxGeometry>
        </mxCell>
        <mxCell id="K3WVoDSNx91NNgabxfpI-24" style="shape=partialRectangle;collapsible=0;dropTarget=0;pointerEvents=0;fillColor=none;top=0;left=0;bottom=0;right=0;points=[[0,0.5],[1,0.5]];portConstraint=eastwest;" vertex="1" parent="K3WVoDSNx91NNgabxfpI-2">
          <mxGeometry y="240" width="145" height="30" as="geometry" />
        </mxCell>
        <mxCell id="K3WVoDSNx91NNgabxfpI-25" value="Aceleração no eixo y" style="shape=partialRectangle;connectable=0;fillColor=default;top=0;left=0;bottom=0;right=0;align=left;spacingLeft=6;overflow=hidden;" vertex="1" parent="K3WVoDSNx91NNgabxfpI-24">
          <mxGeometry width="145" height="30" as="geometry">
            <mxRectangle width="145" height="30" as="alternateBounds" />
          </mxGeometry>
        </mxCell>
        <mxCell id="K3WVoDSNx91NNgabxfpI-27" style="shape=partialRectangle;collapsible=0;dropTarget=0;pointerEvents=0;fillColor=none;top=0;left=0;bottom=0;right=0;points=[[0,0.5],[1,0.5]];portConstraint=eastwest;" vertex="1" parent="K3WVoDSNx91NNgabxfpI-2">
          <mxGeometry y="270" width="145" height="30" as="geometry" />
        </mxCell>
        <mxCell id="K3WVoDSNx91NNgabxfpI-28" value="Aceleração no eixo z" style="shape=partialRectangle;connectable=0;fillColor=default;top=0;left=0;bottom=0;right=0;align=left;spacingLeft=6;overflow=hidden;" vertex="1" parent="K3WVoDSNx91NNgabxfpI-27">
          <mxGeometry width="145" height="30" as="geometry">
            <mxRectangle width="145" height="30" as="alternateBounds" />
          </mxGeometry>
        </mxCell>
        <mxCell id="K3WVoDSNx91NNgabxfpI-30" style="shape=partialRectangle;collapsible=0;dropTarget=0;pointerEvents=0;fillColor=none;top=0;left=0;bottom=0;right=0;points=[[0,0.5],[1,0.5]];portConstraint=eastwest;" vertex="1" parent="K3WVoDSNx91NNgabxfpI-2">
          <mxGeometry y="300" width="145" height="30" as="geometry" />
        </mxCell>
        <mxCell id="K3WVoDSNx91NNgabxfpI-31" value="Orientação total" style="shape=partialRectangle;connectable=0;fillColor=default;top=0;left=0;bottom=0;right=0;align=left;spacingLeft=6;overflow=hidden;" vertex="1" parent="K3WVoDSNx91NNgabxfpI-30">
          <mxGeometry width="145" height="30" as="geometry">
            <mxRectangle width="145" height="30" as="alternateBounds" />
          </mxGeometry>
        </mxCell>
        <mxCell id="K3WVoDSNx91NNgabxfpI-33" style="shape=partialRectangle;collapsible=0;dropTarget=0;pointerEvents=0;fillColor=none;top=0;left=0;bottom=0;right=0;points=[[0,0.5],[1,0.5]];portConstraint=eastwest;" vertex="1" parent="K3WVoDSNx91NNgabxfpI-2">
          <mxGeometry y="330" width="145" height="30" as="geometry" />
        </mxCell>
        <mxCell id="K3WVoDSNx91NNgabxfpI-34" value="Orientação no eixo x" style="shape=partialRectangle;connectable=0;fillColor=default;top=0;left=0;bottom=0;right=0;align=left;spacingLeft=6;overflow=hidden;" vertex="1" parent="K3WVoDSNx91NNgabxfpI-33">
          <mxGeometry width="145" height="30" as="geometry">
            <mxRectangle width="145" height="30" as="alternateBounds" />
          </mxGeometry>
        </mxCell>
        <mxCell id="K3WVoDSNx91NNgabxfpI-36" style="shape=partialRectangle;collapsible=0;dropTarget=0;pointerEvents=0;fillColor=none;top=0;left=0;bottom=0;right=0;points=[[0,0.5],[1,0.5]];portConstraint=eastwest;" vertex="1" parent="K3WVoDSNx91NNgabxfpI-2">
          <mxGeometry y="360" width="145" height="30" as="geometry" />
        </mxCell>
        <mxCell id="K3WVoDSNx91NNgabxfpI-37" value="Orientação no eixo y" style="shape=partialRectangle;connectable=0;fillColor=default;top=0;left=0;bottom=0;right=0;align=left;spacingLeft=6;overflow=hidden;" vertex="1" parent="K3WVoDSNx91NNgabxfpI-36">
          <mxGeometry width="145" height="30" as="geometry">
            <mxRectangle width="145" height="30" as="alternateBounds" />
          </mxGeometry>
        </mxCell>
        <mxCell id="K3WVoDSNx91NNgabxfpI-39" style="shape=partialRectangle;collapsible=0;dropTarget=0;pointerEvents=0;fillColor=none;top=0;left=0;bottom=0;right=0;points=[[0,0.5],[1,0.5]];portConstraint=eastwest;" vertex="1" parent="K3WVoDSNx91NNgabxfpI-2">
          <mxGeometry y="390" width="145" height="30" as="geometry" />
        </mxCell>
        <mxCell id="K3WVoDSNx91NNgabxfpI-40" value="Orientação no eixo z" style="shape=partialRectangle;connectable=0;fillColor=default;top=0;left=0;bottom=0;right=0;align=left;spacingLeft=6;overflow=hidden;" vertex="1" parent="K3WVoDSNx91NNgabxfpI-39">
          <mxGeometry width="145" height="30" as="geometry">
            <mxRectangle width="145" height="30" as="alternateBounds" />
          </mxGeometry>
        </mxCell>
        <mxCell id="K3WVoDSNx91NNgabxfpI-42" value="SQL database" style="swimlane;dashed=1;fillColor=#007FFF;fontColor=#ffffff;strokeColor=#0066CC;swimlaneFillColor=#CCE5FF;" vertex="1" parent="1">
          <mxGeometry x="230" width="540" height="1030" as="geometry" />
        </mxCell>
        <mxCell id="K3WVoDSNx91NNgabxfpI-43" value="" style="fontSize=12;html=1;endArrow=ERzeroToMany;endFill=1;rounded=0;entryX=0.5;entryY=0;entryDx=0;entryDy=0;exitX=0.62;exitY=1.033;exitDx=0;exitDy=0;exitPerimeter=0;" edge="1" parent="K3WVoDSNx91NNgabxfpI-42">
          <mxGeometry width="100" height="100" relative="1" as="geometry">
            <mxPoint x="357" y="590.99" as="sourcePoint" />
            <mxPoint x="357.5" y="620" as="targetPoint" />
          </mxGeometry>
        </mxCell>
        <mxCell id="K3WVoDSNx91NNgabxfpI-44" value="" style="edgeStyle=orthogonalEdgeStyle;fontSize=12;html=1;endArrow=ERzeroToMany;startArrow=ERmandOne;rounded=0;entryX=1;entryY=0.5;entryDx=0;entryDy=0;exitX=0;exitY=0.5;exitDx=0;exitDy=0;" edge="1" parent="K3WVoDSNx91NNgabxfpI-42" source="K3WVoDSNx91NNgabxfpI-112" target="K3WVoDSNx91NNgabxfpI-95">
          <mxGeometry width="100" height="100" relative="1" as="geometry">
            <mxPoint x="380" y="265" as="sourcePoint" />
            <mxPoint x="268" y="265" as="targetPoint" />
          </mxGeometry>
        </mxCell>
        <mxCell id="K3WVoDSNx91NNgabxfpI-45" value="" style="edgeStyle=orthogonalEdgeStyle;fontSize=12;html=1;endArrow=ERzeroToMany;startArrow=ERmandOne;rounded=0;entryX=1;entryY=0.5;entryDx=0;entryDy=0;exitX=0;exitY=0.5;exitDx=0;exitDy=0;" edge="1" parent="K3WVoDSNx91NNgabxfpI-42" source="K3WVoDSNx91NNgabxfpI-146" target="K3WVoDSNx91NNgabxfpI-103">
          <mxGeometry width="100" height="100" relative="1" as="geometry">
            <mxPoint x="380" y="431.25" as="sourcePoint" />
            <mxPoint x="268" y="302.5" as="targetPoint" />
          </mxGeometry>
        </mxCell>
        <mxCell id="K3WVoDSNx91NNgabxfpI-46" value="" style="fontSize=12;html=1;endArrow=ERzeroToMany;startArrow=ERmandOne;rounded=0;exitX=0.5;exitY=0;exitDx=0;exitDy=0;" edge="1" parent="K3WVoDSNx91NNgabxfpI-42" source="K3WVoDSNx91NNgabxfpI-162" target="K3WVoDSNx91NNgabxfpI-103">
          <mxGeometry width="100" height="100" relative="1" as="geometry">
            <mxPoint x="184.5" y="540" as="sourcePoint" />
            <mxPoint x="181.5" y="430" as="targetPoint" />
          </mxGeometry>
        </mxCell>
        <mxCell id="K3WVoDSNx91NNgabxfpI-47" value="" style="fontSize=12;html=1;endArrow=ERmandOne;startArrow=ERmandOne;rounded=0;entryX=0.495;entryY=1.033;entryDx=0;entryDy=0;entryPerimeter=0;exitX=0.5;exitY=0;exitDx=0;exitDy=0;" edge="1" parent="K3WVoDSNx91NNgabxfpI-42" target="K3WVoDSNx91NNgabxfpI-70" source="K3WVoDSNx91NNgabxfpI-74">
          <mxGeometry width="100" height="100" relative="1" as="geometry">
            <mxPoint x="189" y="490" as="sourcePoint" />
            <mxPoint x="160" y="370" as="targetPoint" />
          </mxGeometry>
        </mxCell>
        <mxCell id="K3WVoDSNx91NNgabxfpI-48" value="" style="fontSize=12;html=1;endArrow=ERzeroToMany;endFill=1;rounded=0;entryX=0.5;entryY=0;entryDx=0;entryDy=0;edgeStyle=orthogonalEdgeStyle;exitX=0.497;exitY=1;exitDx=0;exitDy=0;exitPerimeter=0;" edge="1" parent="K3WVoDSNx91NNgabxfpI-42" source="K3WVoDSNx91NNgabxfpI-133" target="K3WVoDSNx91NNgabxfpI-137">
          <mxGeometry width="100" height="100" relative="1" as="geometry">
            <mxPoint x="419" y="830" as="sourcePoint" />
            <mxPoint x="724" y="690" as="targetPoint" />
          </mxGeometry>
        </mxCell>
        <mxCell id="K3WVoDSNx91NNgabxfpI-49" value="Usuário" style="shape=table;startSize=30;container=1;collapsible=1;childLayout=tableLayout;fixedRows=1;rowLines=0;fontStyle=1;align=center;resizeLast=1;fillColor=#66B2FF;" vertex="1" parent="K3WVoDSNx91NNgabxfpI-42">
          <mxGeometry x="20" y="230" width="155" height="210" as="geometry" />
        </mxCell>
        <mxCell id="K3WVoDSNx91NNgabxfpI-50" value="" style="shape=partialRectangle;collapsible=0;dropTarget=0;pointerEvents=0;fillColor=none;top=0;left=0;bottom=1;right=0;points=[[0,0.5],[1,0.5]];portConstraint=eastwest;" vertex="1" parent="K3WVoDSNx91NNgabxfpI-49">
          <mxGeometry y="30" width="155" height="30" as="geometry" />
        </mxCell>
        <mxCell id="K3WVoDSNx91NNgabxfpI-52" value="ID do usuário" style="shape=partialRectangle;connectable=0;fillColor=default;top=0;left=0;bottom=0;right=0;align=left;spacingLeft=6;fontStyle=1;overflow=hidden;" vertex="1" parent="K3WVoDSNx91NNgabxfpI-50">
          <mxGeometry width="155" height="30" as="geometry">
            <mxRectangle width="155" height="30" as="alternateBounds" />
          </mxGeometry>
        </mxCell>
        <mxCell id="K3WVoDSNx91NNgabxfpI-54" value="" style="shape=partialRectangle;collapsible=0;dropTarget=0;pointerEvents=0;fillColor=none;top=0;left=0;bottom=0;right=0;points=[[0,0.5],[1,0.5]];portConstraint=eastwest;" vertex="1" parent="K3WVoDSNx91NNgabxfpI-49">
          <mxGeometry y="60" width="155" height="30" as="geometry" />
        </mxCell>
        <mxCell id="K3WVoDSNx91NNgabxfpI-56" value="E-mail" style="shape=partialRectangle;connectable=0;fillColor=default;top=0;left=0;bottom=0;right=0;align=left;spacingLeft=6;overflow=hidden;" vertex="1" parent="K3WVoDSNx91NNgabxfpI-54">
          <mxGeometry width="155" height="30" as="geometry">
            <mxRectangle width="155" height="30" as="alternateBounds" />
          </mxGeometry>
        </mxCell>
        <mxCell id="K3WVoDSNx91NNgabxfpI-58" value="" style="shape=partialRectangle;collapsible=0;dropTarget=0;pointerEvents=0;fillColor=none;top=0;left=0;bottom=0;right=0;points=[[0,0.5],[1,0.5]];portConstraint=eastwest;" vertex="1" parent="K3WVoDSNx91NNgabxfpI-49">
          <mxGeometry y="90" width="155" height="30" as="geometry" />
        </mxCell>
        <mxCell id="K3WVoDSNx91NNgabxfpI-60" value="Senha" style="shape=partialRectangle;connectable=0;fillColor=default;top=0;left=0;bottom=0;right=0;align=left;spacingLeft=6;overflow=hidden;" vertex="1" parent="K3WVoDSNx91NNgabxfpI-58">
          <mxGeometry width="155" height="30" as="geometry">
            <mxRectangle width="155" height="30" as="alternateBounds" />
          </mxGeometry>
        </mxCell>
        <mxCell id="K3WVoDSNx91NNgabxfpI-62" style="shape=partialRectangle;collapsible=0;dropTarget=0;pointerEvents=0;fillColor=none;top=0;left=0;bottom=0;right=0;points=[[0,0.5],[1,0.5]];portConstraint=eastwest;" vertex="1" parent="K3WVoDSNx91NNgabxfpI-49">
          <mxGeometry y="120" width="155" height="30" as="geometry" />
        </mxCell>
        <mxCell id="K3WVoDSNx91NNgabxfpI-64" value="Nível de acesso" style="shape=partialRectangle;connectable=0;fillColor=default;top=0;left=0;bottom=0;right=0;align=left;spacingLeft=6;overflow=hidden;" vertex="1" parent="K3WVoDSNx91NNgabxfpI-62">
          <mxGeometry width="155" height="30" as="geometry">
            <mxRectangle width="155" height="30" as="alternateBounds" />
          </mxGeometry>
        </mxCell>
        <mxCell id="K3WVoDSNx91NNgabxfpI-66" style="shape=partialRectangle;collapsible=0;dropTarget=0;pointerEvents=0;fillColor=none;top=0;left=0;bottom=0;right=0;points=[[0,0.5],[1,0.5]];portConstraint=eastwest;" vertex="1" parent="K3WVoDSNx91NNgabxfpI-49">
          <mxGeometry y="150" width="155" height="30" as="geometry" />
        </mxCell>
        <mxCell id="K3WVoDSNx91NNgabxfpI-68" value="Ativo" style="shape=partialRectangle;connectable=0;fillColor=default;top=0;left=0;bottom=0;right=0;align=left;spacingLeft=6;overflow=hidden;" vertex="1" parent="K3WVoDSNx91NNgabxfpI-66">
          <mxGeometry width="155" height="30" as="geometry">
            <mxRectangle width="155" height="30" as="alternateBounds" />
          </mxGeometry>
        </mxCell>
        <mxCell id="K3WVoDSNx91NNgabxfpI-70" style="shape=partialRectangle;collapsible=0;dropTarget=0;pointerEvents=0;fillColor=none;top=0;left=0;bottom=0;right=0;points=[[0,0.5],[1,0.5]];portConstraint=eastwest;" vertex="1" parent="K3WVoDSNx91NNgabxfpI-49">
          <mxGeometry y="180" width="155" height="30" as="geometry" />
        </mxCell>
        <mxCell id="K3WVoDSNx91NNgabxfpI-72" value="Último login" style="shape=partialRectangle;connectable=0;fillColor=default;top=0;left=0;bottom=0;right=0;align=left;spacingLeft=6;overflow=hidden;" vertex="1" parent="K3WVoDSNx91NNgabxfpI-70">
          <mxGeometry width="155" height="30" as="geometry">
            <mxRectangle width="155" height="30" as="alternateBounds" />
          </mxGeometry>
        </mxCell>
        <mxCell id="K3WVoDSNx91NNgabxfpI-74" value="Perfil" style="shape=table;startSize=30;container=1;collapsible=1;childLayout=tableLayout;fixedRows=1;rowLines=0;fontStyle=1;align=center;resizeLast=1;fillColor=#66B2FF;" vertex="1" parent="K3WVoDSNx91NNgabxfpI-42">
          <mxGeometry x="22.5" y="490" width="150" height="270" as="geometry" />
        </mxCell>
        <mxCell id="K3WVoDSNx91NNgabxfpI-75" value="" style="shape=partialRectangle;collapsible=0;dropTarget=0;pointerEvents=0;fillColor=none;top=0;left=0;bottom=1;right=0;points=[[0,0.5],[1,0.5]];portConstraint=eastwest;" vertex="1" parent="K3WVoDSNx91NNgabxfpI-74">
          <mxGeometry y="30" width="150" height="30" as="geometry" />
        </mxCell>
        <mxCell id="K3WVoDSNx91NNgabxfpI-77" value="ID do usuário" style="shape=partialRectangle;connectable=0;fillColor=default;top=0;left=0;bottom=0;right=0;align=left;spacingLeft=6;fontStyle=1;overflow=hidden;" vertex="1" parent="K3WVoDSNx91NNgabxfpI-75">
          <mxGeometry width="150" height="30" as="geometry">
            <mxRectangle width="150" height="30" as="alternateBounds" />
          </mxGeometry>
        </mxCell>
        <mxCell id="K3WVoDSNx91NNgabxfpI-79" value="" style="shape=partialRectangle;collapsible=0;dropTarget=0;pointerEvents=0;fillColor=none;top=0;left=0;bottom=0;right=0;points=[[0,0.5],[1,0.5]];portConstraint=eastwest;" vertex="1" parent="K3WVoDSNx91NNgabxfpI-74">
          <mxGeometry y="60" width="150" height="30" as="geometry" />
        </mxCell>
        <mxCell id="K3WVoDSNx91NNgabxfpI-81" value="Nome" style="shape=partialRectangle;connectable=0;fillColor=default;top=0;left=0;bottom=0;right=0;align=left;spacingLeft=6;overflow=hidden;" vertex="1" parent="K3WVoDSNx91NNgabxfpI-79">
          <mxGeometry width="150" height="30" as="geometry">
            <mxRectangle width="150" height="30" as="alternateBounds" />
          </mxGeometry>
        </mxCell>
        <mxCell id="K3WVoDSNx91NNgabxfpI-83" value="" style="shape=partialRectangle;collapsible=0;dropTarget=0;pointerEvents=0;fillColor=none;top=0;left=0;bottom=0;right=0;points=[[0,0.5],[1,0.5]];portConstraint=eastwest;" vertex="1" parent="K3WVoDSNx91NNgabxfpI-74">
          <mxGeometry y="90" width="150" height="30" as="geometry" />
        </mxCell>
        <mxCell id="K3WVoDSNx91NNgabxfpI-85" value="Data de nascimento" style="shape=partialRectangle;connectable=0;fillColor=default;top=0;left=0;bottom=0;right=0;align=left;spacingLeft=6;overflow=hidden;" vertex="1" parent="K3WVoDSNx91NNgabxfpI-83">
          <mxGeometry width="150" height="30" as="geometry">
            <mxRectangle width="150" height="30" as="alternateBounds" />
          </mxGeometry>
        </mxCell>
        <mxCell id="K3WVoDSNx91NNgabxfpI-87" style="shape=partialRectangle;collapsible=0;dropTarget=0;pointerEvents=0;fillColor=none;top=0;left=0;bottom=0;right=0;points=[[0,0.5],[1,0.5]];portConstraint=eastwest;" vertex="1" parent="K3WVoDSNx91NNgabxfpI-74">
          <mxGeometry y="120" width="150" height="30" as="geometry" />
        </mxCell>
        <mxCell id="K3WVoDSNx91NNgabxfpI-89" value="Gênero" style="shape=partialRectangle;connectable=0;fillColor=default;top=0;left=0;bottom=0;right=0;align=left;spacingLeft=6;overflow=hidden;" vertex="1" parent="K3WVoDSNx91NNgabxfpI-87">
          <mxGeometry width="150" height="30" as="geometry">
            <mxRectangle width="150" height="30" as="alternateBounds" />
          </mxGeometry>
        </mxCell>
        <mxCell id="K3WVoDSNx91NNgabxfpI-91" style="shape=partialRectangle;collapsible=0;dropTarget=0;pointerEvents=0;fillColor=none;top=0;left=0;bottom=0;right=0;points=[[0,0.5],[1,0.5]];portConstraint=eastwest;" vertex="1" parent="K3WVoDSNx91NNgabxfpI-74">
          <mxGeometry y="150" width="150" height="30" as="geometry" />
        </mxCell>
        <mxCell id="K3WVoDSNx91NNgabxfpI-93" value="Ocupação" style="shape=partialRectangle;connectable=0;fillColor=default;top=0;left=0;bottom=0;right=0;align=left;spacingLeft=6;overflow=hidden;" vertex="1" parent="K3WVoDSNx91NNgabxfpI-91">
          <mxGeometry width="150" height="30" as="geometry">
            <mxRectangle width="150" height="30" as="alternateBounds" />
          </mxGeometry>
        </mxCell>
        <mxCell id="K3WVoDSNx91NNgabxfpI-95" style="shape=partialRectangle;collapsible=0;dropTarget=0;pointerEvents=0;fillColor=none;top=0;left=0;bottom=0;right=0;points=[[0,0.5],[1,0.5]];portConstraint=eastwest;" vertex="1" parent="K3WVoDSNx91NNgabxfpI-74">
          <mxGeometry y="180" width="150" height="30" as="geometry" />
        </mxCell>
        <mxCell id="K3WVoDSNx91NNgabxfpI-97" value="País" style="shape=partialRectangle;connectable=0;fillColor=default;top=0;left=0;bottom=0;right=0;align=left;spacingLeft=6;overflow=hidden;" vertex="1" parent="K3WVoDSNx91NNgabxfpI-95">
          <mxGeometry width="150" height="30" as="geometry">
            <mxRectangle width="150" height="30" as="alternateBounds" />
          </mxGeometry>
        </mxCell>
        <mxCell id="K3WVoDSNx91NNgabxfpI-99" style="shape=partialRectangle;collapsible=0;dropTarget=0;pointerEvents=0;fillColor=none;top=0;left=0;bottom=0;right=0;points=[[0,0.5],[1,0.5]];portConstraint=eastwest;" vertex="1" parent="K3WVoDSNx91NNgabxfpI-74">
          <mxGeometry y="210" width="150" height="30" as="geometry" />
        </mxCell>
        <mxCell id="K3WVoDSNx91NNgabxfpI-101" value="Subdivisão do país" style="shape=partialRectangle;connectable=0;fillColor=default;top=0;left=0;bottom=0;right=0;align=left;spacingLeft=6;overflow=hidden;" vertex="1" parent="K3WVoDSNx91NNgabxfpI-99">
          <mxGeometry width="150" height="30" as="geometry">
            <mxRectangle width="150" height="30" as="alternateBounds" />
          </mxGeometry>
        </mxCell>
        <mxCell id="K3WVoDSNx91NNgabxfpI-103" style="shape=partialRectangle;collapsible=0;dropTarget=0;pointerEvents=0;fillColor=none;top=0;left=0;bottom=0;right=0;points=[[0,0.5],[1,0.5]];portConstraint=eastwest;" vertex="1" parent="K3WVoDSNx91NNgabxfpI-74">
          <mxGeometry y="240" width="150" height="30" as="geometry" />
        </mxCell>
        <mxCell id="K3WVoDSNx91NNgabxfpI-105" value="Cidade" style="shape=partialRectangle;connectable=0;fillColor=default;top=0;left=0;bottom=0;right=0;align=left;spacingLeft=6;overflow=hidden;" vertex="1" parent="K3WVoDSNx91NNgabxfpI-103">
          <mxGeometry width="150" height="30" as="geometry">
            <mxRectangle width="150" height="30" as="alternateBounds" />
          </mxGeometry>
        </mxCell>
        <mxCell id="K3WVoDSNx91NNgabxfpI-107" value="País" style="shape=table;startSize=30;container=1;collapsible=1;childLayout=tableLayout;fixedRows=1;rowLines=0;fontStyle=1;align=center;resizeLast=1;fillColor=#66B2FF;" vertex="1" parent="K3WVoDSNx91NNgabxfpI-42">
          <mxGeometry x="291.5" y="470" width="125" height="120" as="geometry" />
        </mxCell>
        <mxCell id="K3WVoDSNx91NNgabxfpI-108" value="" style="shape=partialRectangle;collapsible=0;dropTarget=0;pointerEvents=0;fillColor=none;top=0;left=0;bottom=1;right=0;points=[[0,0.5],[1,0.5]];portConstraint=eastwest;" vertex="1" parent="K3WVoDSNx91NNgabxfpI-107">
          <mxGeometry y="30" width="125" height="30" as="geometry" />
        </mxCell>
        <mxCell id="K3WVoDSNx91NNgabxfpI-110" value="Código do país" style="shape=partialRectangle;connectable=0;fillColor=default;top=0;left=0;bottom=0;right=0;align=left;spacingLeft=6;fontStyle=1;overflow=hidden;" vertex="1" parent="K3WVoDSNx91NNgabxfpI-108">
          <mxGeometry width="125" height="30" as="geometry">
            <mxRectangle width="125" height="30" as="alternateBounds" />
          </mxGeometry>
        </mxCell>
        <mxCell id="K3WVoDSNx91NNgabxfpI-112" value="" style="shape=partialRectangle;collapsible=0;dropTarget=0;pointerEvents=0;fillColor=none;top=0;left=0;bottom=0;right=0;points=[[0,0.5],[1,0.5]];portConstraint=eastwest;" vertex="1" parent="K3WVoDSNx91NNgabxfpI-107">
          <mxGeometry y="60" width="125" height="30" as="geometry" />
        </mxCell>
        <mxCell id="K3WVoDSNx91NNgabxfpI-114" value="Nome do país" style="shape=partialRectangle;connectable=0;fillColor=default;top=0;left=0;bottom=0;right=0;align=left;spacingLeft=6;overflow=hidden;" vertex="1" parent="K3WVoDSNx91NNgabxfpI-112">
          <mxGeometry width="125" height="30" as="geometry">
            <mxRectangle width="125" height="30" as="alternateBounds" />
          </mxGeometry>
        </mxCell>
        <mxCell id="K3WVoDSNx91NNgabxfpI-116" value="" style="shape=partialRectangle;collapsible=0;dropTarget=0;pointerEvents=0;fillColor=none;top=0;left=0;bottom=0;right=0;points=[[0,0.5],[1,0.5]];portConstraint=eastwest;" vertex="1" parent="K3WVoDSNx91NNgabxfpI-107">
          <mxGeometry y="90" width="125" height="30" as="geometry" />
        </mxCell>
        <mxCell id="K3WVoDSNx91NNgabxfpI-118" value="Ativo" style="shape=partialRectangle;connectable=0;fillColor=default;top=0;left=0;bottom=0;right=0;align=left;spacingLeft=6;overflow=hidden;" vertex="1" parent="K3WVoDSNx91NNgabxfpI-116">
          <mxGeometry width="125" height="30" as="geometry">
            <mxRectangle width="125" height="30" as="alternateBounds" />
          </mxGeometry>
        </mxCell>
        <mxCell id="K3WVoDSNx91NNgabxfpI-120" value="Subdivisão do país" style="shape=table;startSize=30;container=1;collapsible=1;childLayout=tableLayout;fixedRows=1;rowLines=0;fontStyle=1;align=center;resizeLast=1;fillColor=#66B2FF;" vertex="1" parent="K3WVoDSNx91NNgabxfpI-42">
          <mxGeometry x="270" y="620" width="199" height="150" as="geometry" />
        </mxCell>
        <mxCell id="K3WVoDSNx91NNgabxfpI-121" value="" style="shape=partialRectangle;collapsible=0;dropTarget=0;pointerEvents=0;fillColor=none;top=0;left=0;bottom=1;right=0;points=[[0,0.5],[1,0.5]];portConstraint=eastwest;" vertex="1" parent="K3WVoDSNx91NNgabxfpI-120">
          <mxGeometry y="30" width="199" height="30" as="geometry" />
        </mxCell>
        <mxCell id="K3WVoDSNx91NNgabxfpI-123" value="País" style="shape=partialRectangle;connectable=0;fillColor=default;top=0;left=0;bottom=0;right=0;align=left;spacingLeft=6;fontStyle=1;overflow=hidden;" vertex="1" parent="K3WVoDSNx91NNgabxfpI-121">
          <mxGeometry width="199" height="30" as="geometry">
            <mxRectangle width="199" height="30" as="alternateBounds" />
          </mxGeometry>
        </mxCell>
        <mxCell id="K3WVoDSNx91NNgabxfpI-125" style="shape=partialRectangle;collapsible=0;dropTarget=0;pointerEvents=0;fillColor=none;top=0;left=0;bottom=1;right=0;points=[[0,0.5],[1,0.5]];portConstraint=eastwest;" vertex="1" parent="K3WVoDSNx91NNgabxfpI-120">
          <mxGeometry y="60" width="199" height="30" as="geometry" />
        </mxCell>
        <mxCell id="K3WVoDSNx91NNgabxfpI-127" value="Código da subdivisão do país" style="shape=partialRectangle;connectable=0;fillColor=default;top=0;left=0;bottom=0;right=0;align=left;spacingLeft=6;fontStyle=1;overflow=hidden;" vertex="1" parent="K3WVoDSNx91NNgabxfpI-125">
          <mxGeometry width="199" height="30" as="geometry">
            <mxRectangle width="199" height="30" as="alternateBounds" />
          </mxGeometry>
        </mxCell>
        <mxCell id="K3WVoDSNx91NNgabxfpI-129" value="" style="shape=partialRectangle;collapsible=0;dropTarget=0;pointerEvents=0;fillColor=none;top=0;left=0;bottom=0;right=0;points=[[0,0.5],[1,0.5]];portConstraint=eastwest;" vertex="1" parent="K3WVoDSNx91NNgabxfpI-120">
          <mxGeometry y="90" width="199" height="30" as="geometry" />
        </mxCell>
        <mxCell id="K3WVoDSNx91NNgabxfpI-131" value="Nome da subdivisão do país" style="shape=partialRectangle;connectable=0;fillColor=default;top=0;left=0;bottom=0;right=0;align=left;spacingLeft=6;overflow=hidden;" vertex="1" parent="K3WVoDSNx91NNgabxfpI-129">
          <mxGeometry width="199" height="30" as="geometry">
            <mxRectangle width="199" height="30" as="alternateBounds" />
          </mxGeometry>
        </mxCell>
        <mxCell id="K3WVoDSNx91NNgabxfpI-133" value="" style="shape=partialRectangle;collapsible=0;dropTarget=0;pointerEvents=0;fillColor=none;top=0;left=0;bottom=0;right=0;points=[[0,0.5],[1,0.5]];portConstraint=eastwest;" vertex="1" parent="K3WVoDSNx91NNgabxfpI-120">
          <mxGeometry y="120" width="199" height="30" as="geometry" />
        </mxCell>
        <mxCell id="K3WVoDSNx91NNgabxfpI-135" value="Ativo" style="shape=partialRectangle;connectable=0;fillColor=default;top=0;left=0;bottom=0;right=0;align=left;spacingLeft=6;overflow=hidden;" vertex="1" parent="K3WVoDSNx91NNgabxfpI-133">
          <mxGeometry width="199" height="30" as="geometry">
            <mxRectangle width="199" height="30" as="alternateBounds" />
          </mxGeometry>
        </mxCell>
        <mxCell id="K3WVoDSNx91NNgabxfpI-137" value="Cidade" style="shape=table;startSize=30;container=1;collapsible=1;childLayout=tableLayout;fixedRows=1;rowLines=0;fontStyle=1;align=center;resizeLast=1;fillColor=#66B2FF;" vertex="1" parent="K3WVoDSNx91NNgabxfpI-42">
          <mxGeometry x="284.5" y="810" width="170" height="210" as="geometry" />
        </mxCell>
        <mxCell id="K3WVoDSNx91NNgabxfpI-138" value="" style="shape=partialRectangle;collapsible=0;dropTarget=0;pointerEvents=0;fillColor=none;top=0;left=0;bottom=1;right=0;points=[[0,0.5],[1,0.5]];portConstraint=eastwest;" vertex="1" parent="K3WVoDSNx91NNgabxfpI-137">
          <mxGeometry y="30" width="170" height="30" as="geometry" />
        </mxCell>
        <mxCell id="K3WVoDSNx91NNgabxfpI-140" value="País" style="shape=partialRectangle;connectable=0;fillColor=default;top=0;left=0;bottom=0;right=0;align=left;spacingLeft=6;fontStyle=1;overflow=hidden;" vertex="1" parent="K3WVoDSNx91NNgabxfpI-138">
          <mxGeometry width="170" height="30" as="geometry">
            <mxRectangle width="170" height="30" as="alternateBounds" />
          </mxGeometry>
        </mxCell>
        <mxCell id="K3WVoDSNx91NNgabxfpI-142" style="shape=partialRectangle;collapsible=0;dropTarget=0;pointerEvents=0;fillColor=none;top=0;left=0;bottom=1;right=0;points=[[0,0.5],[1,0.5]];portConstraint=eastwest;" vertex="1" parent="K3WVoDSNx91NNgabxfpI-137">
          <mxGeometry y="60" width="170" height="30" as="geometry" />
        </mxCell>
        <mxCell id="K3WVoDSNx91NNgabxfpI-144" value="Cidade" style="shape=partialRectangle;connectable=0;fillColor=default;top=0;left=0;bottom=0;right=0;align=left;spacingLeft=6;fontStyle=1;overflow=hidden;" vertex="1" parent="K3WVoDSNx91NNgabxfpI-142">
          <mxGeometry width="170" height="30" as="geometry">
            <mxRectangle width="170" height="30" as="alternateBounds" />
          </mxGeometry>
        </mxCell>
        <mxCell id="K3WVoDSNx91NNgabxfpI-146" value="" style="shape=partialRectangle;collapsible=0;dropTarget=0;pointerEvents=0;fillColor=none;top=0;left=0;bottom=0;right=0;points=[[0,0.5],[1,0.5]];portConstraint=eastwest;" vertex="1" parent="K3WVoDSNx91NNgabxfpI-137">
          <mxGeometry y="90" width="170" height="30" as="geometry" />
        </mxCell>
        <mxCell id="K3WVoDSNx91NNgabxfpI-148" value="Subdivisão do país" style="shape=partialRectangle;connectable=0;fillColor=default;top=0;left=0;bottom=0;right=0;align=left;spacingLeft=6;overflow=hidden;" vertex="1" parent="K3WVoDSNx91NNgabxfpI-146">
          <mxGeometry width="170" height="30" as="geometry">
            <mxRectangle width="170" height="30" as="alternateBounds" />
          </mxGeometry>
        </mxCell>
        <mxCell id="K3WVoDSNx91NNgabxfpI-150" style="shape=partialRectangle;collapsible=0;dropTarget=0;pointerEvents=0;fillColor=none;top=0;left=0;bottom=0;right=0;points=[[0,0.5],[1,0.5]];portConstraint=eastwest;" vertex="1" parent="K3WVoDSNx91NNgabxfpI-137">
          <mxGeometry y="120" width="170" height="30" as="geometry" />
        </mxCell>
        <mxCell id="K3WVoDSNx91NNgabxfpI-152" value="Cidade" style="shape=partialRectangle;connectable=0;fillColor=default;top=0;left=0;bottom=0;right=0;align=left;spacingLeft=6;overflow=hidden;" vertex="1" parent="K3WVoDSNx91NNgabxfpI-150">
          <mxGeometry width="170" height="30" as="geometry">
            <mxRectangle width="170" height="30" as="alternateBounds" />
          </mxGeometry>
        </mxCell>
        <mxCell id="K3WVoDSNx91NNgabxfpI-154" value="" style="shape=partialRectangle;collapsible=0;dropTarget=0;pointerEvents=0;fillColor=none;top=0;left=0;bottom=0;right=0;points=[[0,0.5],[1,0.5]];portConstraint=eastwest;" vertex="1" parent="K3WVoDSNx91NNgabxfpI-137">
          <mxGeometry y="150" width="170" height="30" as="geometry" />
        </mxCell>
        <mxCell id="K3WVoDSNx91NNgabxfpI-156" value="Ativo" style="shape=partialRectangle;connectable=0;fillColor=default;top=0;left=0;bottom=0;right=0;align=left;spacingLeft=6;overflow=hidden;" vertex="1" parent="K3WVoDSNx91NNgabxfpI-154">
          <mxGeometry width="170" height="30" as="geometry">
            <mxRectangle width="170" height="30" as="alternateBounds" />
          </mxGeometry>
        </mxCell>
        <mxCell id="K3WVoDSNx91NNgabxfpI-158" style="shape=partialRectangle;collapsible=0;dropTarget=0;pointerEvents=0;fillColor=none;top=0;left=0;bottom=0;right=0;points=[[0,0.5],[1,0.5]];portConstraint=eastwest;" vertex="1" parent="K3WVoDSNx91NNgabxfpI-137">
          <mxGeometry y="180" width="170" height="30" as="geometry" />
        </mxCell>
        <mxCell id="K3WVoDSNx91NNgabxfpI-160" value="Código UN" style="shape=partialRectangle;connectable=0;fillColor=default;top=0;left=0;bottom=0;right=0;align=left;spacingLeft=6;overflow=hidden;" vertex="1" parent="K3WVoDSNx91NNgabxfpI-158">
          <mxGeometry width="170" height="30" as="geometry">
            <mxRectangle width="170" height="30" as="alternateBounds" />
          </mxGeometry>
        </mxCell>
        <mxCell id="K3WVoDSNx91NNgabxfpI-162" value="Ocupação" style="shape=table;startSize=30;container=1;collapsible=1;childLayout=tableLayout;fixedRows=1;rowLines=0;fontStyle=1;align=center;resizeLast=1;fillColor=#66B2FF;" vertex="1" parent="K3WVoDSNx91NNgabxfpI-42">
          <mxGeometry x="37.5" y="810" width="120" height="120" as="geometry" />
        </mxCell>
        <mxCell id="K3WVoDSNx91NNgabxfpI-163" style="shape=partialRectangle;collapsible=0;dropTarget=0;pointerEvents=0;fillColor=none;top=0;left=0;bottom=1;right=0;points=[[0,0.5],[1,0.5]];portConstraint=eastwest;" vertex="1" parent="K3WVoDSNx91NNgabxfpI-162">
          <mxGeometry y="30" width="120" height="30" as="geometry" />
        </mxCell>
        <mxCell id="K3WVoDSNx91NNgabxfpI-165" value="ID da ocupação" style="shape=partialRectangle;connectable=0;fillColor=default;top=0;left=0;bottom=0;right=0;align=left;spacingLeft=6;fontStyle=1;overflow=hidden;" vertex="1" parent="K3WVoDSNx91NNgabxfpI-163">
          <mxGeometry width="120" height="30" as="geometry">
            <mxRectangle width="120" height="30" as="alternateBounds" />
          </mxGeometry>
        </mxCell>
        <mxCell id="K3WVoDSNx91NNgabxfpI-167" value="" style="shape=partialRectangle;collapsible=0;dropTarget=0;pointerEvents=0;fillColor=none;top=0;left=0;bottom=1;right=0;points=[[0,0.5],[1,0.5]];portConstraint=eastwest;" vertex="1" parent="K3WVoDSNx91NNgabxfpI-162">
          <mxGeometry y="60" width="120" height="30" as="geometry" />
        </mxCell>
        <mxCell id="K3WVoDSNx91NNgabxfpI-169" value="Ocupação" style="shape=partialRectangle;connectable=0;fillColor=default;top=0;left=0;bottom=0;right=0;align=left;spacingLeft=6;fontStyle=0;overflow=hidden;" vertex="1" parent="K3WVoDSNx91NNgabxfpI-167">
          <mxGeometry width="120" height="30" as="geometry">
            <mxRectangle width="120" height="30" as="alternateBounds" />
          </mxGeometry>
        </mxCell>
        <mxCell id="K3WVoDSNx91NNgabxfpI-171" style="shape=partialRectangle;collapsible=0;dropTarget=0;pointerEvents=0;fillColor=none;top=0;left=0;bottom=1;right=0;points=[[0,0.5],[1,0.5]];portConstraint=eastwest;" vertex="1" parent="K3WVoDSNx91NNgabxfpI-162">
          <mxGeometry y="90" width="120" height="30" as="geometry" />
        </mxCell>
        <mxCell id="K3WVoDSNx91NNgabxfpI-173" value="Ativo" style="shape=partialRectangle;connectable=0;fillColor=default;top=0;left=0;bottom=0;right=0;align=left;spacingLeft=6;fontStyle=0;overflow=hidden;" vertex="1" parent="K3WVoDSNx91NNgabxfpI-171">
          <mxGeometry width="120" height="30" as="geometry">
            <mxRectangle width="120" height="30" as="alternateBounds" />
          </mxGeometry>
        </mxCell>
        <mxCell id="K3WVoDSNx91NNgabxfpI-175" value="Dispositivo" style="shape=table;startSize=30;container=1;collapsible=1;childLayout=tableLayout;fixedRows=1;rowLines=0;fontStyle=1;align=center;resizeLast=1;fillColor=#66B2FF;" vertex="1" parent="K3WVoDSNx91NNgabxfpI-42">
          <mxGeometry x="20" y="40" width="155" height="150" as="geometry" />
        </mxCell>
        <mxCell id="K3WVoDSNx91NNgabxfpI-176" value="" style="shape=partialRectangle;collapsible=0;dropTarget=0;pointerEvents=0;fillColor=none;top=0;left=0;bottom=1;right=0;points=[[0,0.5],[1,0.5]];portConstraint=eastwest;" vertex="1" parent="K3WVoDSNx91NNgabxfpI-175">
          <mxGeometry y="30" width="155" height="30" as="geometry" />
        </mxCell>
        <mxCell id="K3WVoDSNx91NNgabxfpI-178" value="Endereço do dispositivo" style="shape=partialRectangle;connectable=0;fillColor=default;top=0;left=0;bottom=0;right=0;align=left;spacingLeft=6;fontStyle=1;overflow=hidden;" vertex="1" parent="K3WVoDSNx91NNgabxfpI-176">
          <mxGeometry width="155" height="30" as="geometry">
            <mxRectangle width="155" height="30" as="alternateBounds" />
          </mxGeometry>
        </mxCell>
        <mxCell id="K3WVoDSNx91NNgabxfpI-180" value="" style="shape=partialRectangle;collapsible=0;dropTarget=0;pointerEvents=0;fillColor=none;top=0;left=0;bottom=0;right=0;points=[[0,0.5],[1,0.5]];portConstraint=eastwest;" vertex="1" parent="K3WVoDSNx91NNgabxfpI-175">
          <mxGeometry y="60" width="155" height="30" as="geometry" />
        </mxCell>
        <mxCell id="K3WVoDSNx91NNgabxfpI-182" value="Última atualização" style="shape=partialRectangle;connectable=0;fillColor=default;top=0;left=0;bottom=0;right=0;align=left;spacingLeft=6;overflow=hidden;" vertex="1" parent="K3WVoDSNx91NNgabxfpI-180">
          <mxGeometry width="155" height="30" as="geometry">
            <mxRectangle width="155" height="30" as="alternateBounds" />
          </mxGeometry>
        </mxCell>
        <mxCell id="K3WVoDSNx91NNgabxfpI-184" value="" style="shape=partialRectangle;collapsible=0;dropTarget=0;pointerEvents=0;fillColor=none;top=0;left=0;bottom=0;right=0;points=[[0,0.5],[1,0.5]];portConstraint=eastwest;" vertex="1" parent="K3WVoDSNx91NNgabxfpI-175">
          <mxGeometry y="90" width="155" height="30" as="geometry" />
        </mxCell>
        <mxCell id="K3WVoDSNx91NNgabxfpI-186" value="ID do usuário" style="shape=partialRectangle;connectable=0;fillColor=default;top=0;left=0;bottom=0;right=0;align=left;spacingLeft=6;overflow=hidden;" vertex="1" parent="K3WVoDSNx91NNgabxfpI-184">
          <mxGeometry width="155" height="30" as="geometry">
            <mxRectangle width="155" height="30" as="alternateBounds" />
          </mxGeometry>
        </mxCell>
        <mxCell id="K3WVoDSNx91NNgabxfpI-188" style="shape=partialRectangle;collapsible=0;dropTarget=0;pointerEvents=0;fillColor=none;top=0;left=0;bottom=0;right=0;points=[[0,0.5],[1,0.5]];portConstraint=eastwest;" vertex="1" parent="K3WVoDSNx91NNgabxfpI-175">
          <mxGeometry y="120" width="155" height="30" as="geometry" />
        </mxCell>
        <mxCell id="K3WVoDSNx91NNgabxfpI-190" value="Ativo" style="shape=partialRectangle;connectable=0;fillColor=default;top=0;left=0;bottom=0;right=0;align=left;spacingLeft=6;overflow=hidden;" vertex="1" parent="K3WVoDSNx91NNgabxfpI-188">
          <mxGeometry width="155" height="30" as="geometry">
            <mxRectangle width="155" height="30" as="alternateBounds" />
          </mxGeometry>
        </mxCell>
        <mxCell id="K3WVoDSNx91NNgabxfpI-192" value="" style="fontSize=12;html=1;endArrow=ERmandOne;startArrow=ERmandOne;rounded=0;exitX=0.5;exitY=0;exitDx=0;exitDy=0;" edge="1" parent="K3WVoDSNx91NNgabxfpI-42">
          <mxGeometry width="100" height="100" relative="1" as="geometry">
            <mxPoint x="97" y="230" as="sourcePoint" />
            <mxPoint x="97" y="190" as="targetPoint" />
            <Array as="points" />
          </mxGeometry>
        </mxCell>
        <mxCell id="K3WVoDSNx91NNgabxfpI-193" value="" style="edgeStyle=orthogonalEdgeStyle;fontSize=12;html=1;endArrow=ERzeroToMany;startArrow=ERzeroToOne;rounded=0;exitX=0;exitY=0.5;exitDx=0;exitDy=0;entryX=1;entryY=0.5;entryDx=0;entryDy=0;" edge="1" parent="K3WVoDSNx91NNgabxfpI-42" source="K3WVoDSNx91NNgabxfpI-125" target="K3WVoDSNx91NNgabxfpI-99">
          <mxGeometry width="100" height="100" relative="1" as="geometry">
            <mxPoint x="700" y="470" as="sourcePoint" />
            <mxPoint x="800" y="370" as="targetPoint" />
          </mxGeometry>
        </mxCell>
        <mxCell id="K3WVoDSNx91NNgabxfpI-194" value="Instituição" style="shape=table;startSize=30;container=1;collapsible=1;childLayout=tableLayout;fixedRows=1;rowLines=0;fontStyle=1;align=center;resizeLast=1;fillColor=#66B2FF;" vertex="1" parent="K3WVoDSNx91NNgabxfpI-42">
          <mxGeometry x="279" y="182" width="150" height="240" as="geometry" />
        </mxCell>
        <mxCell id="K3WVoDSNx91NNgabxfpI-195" value="" style="shape=partialRectangle;collapsible=0;dropTarget=0;pointerEvents=0;fillColor=none;top=0;left=0;bottom=1;right=0;points=[[0,0.5],[1,0.5]];portConstraint=eastwest;" vertex="1" parent="K3WVoDSNx91NNgabxfpI-194">
          <mxGeometry y="30" width="150" height="30" as="geometry" />
        </mxCell>
        <mxCell id="K3WVoDSNx91NNgabxfpI-197" value="Acrônimo" style="shape=partialRectangle;connectable=0;fillColor=default;top=0;left=0;bottom=0;right=0;align=left;spacingLeft=6;fontStyle=1;overflow=hidden;" vertex="1" parent="K3WVoDSNx91NNgabxfpI-195">
          <mxGeometry width="150" height="30" as="geometry">
            <mxRectangle width="150" height="30" as="alternateBounds" />
          </mxGeometry>
        </mxCell>
        <mxCell id="K3WVoDSNx91NNgabxfpI-199" value="" style="shape=partialRectangle;collapsible=0;dropTarget=0;pointerEvents=0;fillColor=none;top=0;left=0;bottom=0;right=0;points=[[0,0.5],[1,0.5]];portConstraint=eastwest;" vertex="1" parent="K3WVoDSNx91NNgabxfpI-194">
          <mxGeometry y="60" width="150" height="30" as="geometry" />
        </mxCell>
        <mxCell id="K3WVoDSNx91NNgabxfpI-201" value="Nome" style="shape=partialRectangle;connectable=0;fillColor=default;top=0;left=0;bottom=0;right=0;align=left;spacingLeft=6;overflow=hidden;" vertex="1" parent="K3WVoDSNx91NNgabxfpI-199">
          <mxGeometry width="150" height="30" as="geometry">
            <mxRectangle width="150" height="30" as="alternateBounds" />
          </mxGeometry>
        </mxCell>
        <mxCell id="K3WVoDSNx91NNgabxfpI-203" value="" style="shape=partialRectangle;collapsible=0;dropTarget=0;pointerEvents=0;fillColor=none;top=0;left=0;bottom=0;right=0;points=[[0,0.5],[1,0.5]];portConstraint=eastwest;" vertex="1" parent="K3WVoDSNx91NNgabxfpI-194">
          <mxGeometry y="90" width="150" height="30" as="geometry" />
        </mxCell>
        <mxCell id="K3WVoDSNx91NNgabxfpI-205" value="ID do administrador" style="shape=partialRectangle;connectable=0;fillColor=default;top=0;left=0;bottom=0;right=0;align=left;spacingLeft=6;overflow=hidden;" vertex="1" parent="K3WVoDSNx91NNgabxfpI-203">
          <mxGeometry width="150" height="30" as="geometry">
            <mxRectangle width="150" height="30" as="alternateBounds" />
          </mxGeometry>
        </mxCell>
        <mxCell id="K3WVoDSNx91NNgabxfpI-207" style="shape=partialRectangle;collapsible=0;dropTarget=0;pointerEvents=0;fillColor=none;top=0;left=0;bottom=0;right=0;points=[[0,0.5],[1,0.5]];portConstraint=eastwest;" vertex="1" parent="K3WVoDSNx91NNgabxfpI-194">
          <mxGeometry y="120" width="150" height="30" as="geometry" />
        </mxCell>
        <mxCell id="K3WVoDSNx91NNgabxfpI-209" value="País" style="shape=partialRectangle;connectable=0;fillColor=default;top=0;left=0;bottom=0;right=0;align=left;spacingLeft=6;overflow=hidden;" vertex="1" parent="K3WVoDSNx91NNgabxfpI-207">
          <mxGeometry width="150" height="30" as="geometry">
            <mxRectangle width="150" height="30" as="alternateBounds" />
          </mxGeometry>
        </mxCell>
        <mxCell id="K3WVoDSNx91NNgabxfpI-211" style="shape=partialRectangle;collapsible=0;dropTarget=0;pointerEvents=0;fillColor=none;top=0;left=0;bottom=0;right=0;points=[[0,0.5],[1,0.5]];portConstraint=eastwest;" vertex="1" parent="K3WVoDSNx91NNgabxfpI-194">
          <mxGeometry y="150" width="150" height="30" as="geometry" />
        </mxCell>
        <mxCell id="K3WVoDSNx91NNgabxfpI-213" value="Subdivisão do país" style="shape=partialRectangle;connectable=0;fillColor=default;top=0;left=0;bottom=0;right=0;align=left;spacingLeft=6;overflow=hidden;" vertex="1" parent="K3WVoDSNx91NNgabxfpI-211">
          <mxGeometry width="150" height="30" as="geometry">
            <mxRectangle width="150" height="30" as="alternateBounds" />
          </mxGeometry>
        </mxCell>
        <mxCell id="K3WVoDSNx91NNgabxfpI-215" style="shape=partialRectangle;collapsible=0;dropTarget=0;pointerEvents=0;fillColor=none;top=0;left=0;bottom=0;right=0;points=[[0,0.5],[1,0.5]];portConstraint=eastwest;" vertex="1" parent="K3WVoDSNx91NNgabxfpI-194">
          <mxGeometry y="180" width="150" height="30" as="geometry" />
        </mxCell>
        <mxCell id="K3WVoDSNx91NNgabxfpI-217" value="Cidade" style="shape=partialRectangle;connectable=0;fillColor=default;top=0;left=0;bottom=0;right=0;align=left;spacingLeft=6;overflow=hidden;" vertex="1" parent="K3WVoDSNx91NNgabxfpI-215">
          <mxGeometry width="150" height="30" as="geometry">
            <mxRectangle width="150" height="30" as="alternateBounds" />
          </mxGeometry>
        </mxCell>
        <mxCell id="K3WVoDSNx91NNgabxfpI-219" style="shape=partialRectangle;collapsible=0;dropTarget=0;pointerEvents=0;fillColor=none;top=0;left=0;bottom=0;right=0;points=[[0,0.5],[1,0.5]];portConstraint=eastwest;" vertex="1" parent="K3WVoDSNx91NNgabxfpI-194">
          <mxGeometry y="210" width="150" height="30" as="geometry" />
        </mxCell>
        <mxCell id="K3WVoDSNx91NNgabxfpI-221" value="Ativo" style="shape=partialRectangle;connectable=0;fillColor=default;top=0;left=0;bottom=0;right=0;align=left;spacingLeft=6;overflow=hidden;" vertex="1" parent="K3WVoDSNx91NNgabxfpI-219">
          <mxGeometry width="150" height="30" as="geometry">
            <mxRectangle width="150" height="30" as="alternateBounds" />
          </mxGeometry>
        </mxCell>
        <mxCell id="K3WVoDSNx91NNgabxfpI-223" value="Membro da instituição" style="shape=table;startSize=30;container=1;collapsible=1;childLayout=tableLayout;fixedRows=1;rowLines=0;fontStyle=1;align=center;resizeLast=1;fillColor=#66B2FF;" vertex="1" parent="K3WVoDSNx91NNgabxfpI-42">
          <mxGeometry x="284" y="40" width="165" height="90" as="geometry" />
        </mxCell>
        <mxCell id="K3WVoDSNx91NNgabxfpI-224" value="" style="shape=partialRectangle;collapsible=0;dropTarget=0;pointerEvents=0;fillColor=none;top=0;left=0;bottom=1;right=0;points=[[0,0.5],[1,0.5]];portConstraint=eastwest;" vertex="1" parent="K3WVoDSNx91NNgabxfpI-223">
          <mxGeometry y="30" width="165" height="30" as="geometry" />
        </mxCell>
        <mxCell id="K3WVoDSNx91NNgabxfpI-226" value="Acrônimo" style="shape=partialRectangle;connectable=0;fillColor=default;top=0;left=0;bottom=0;right=0;align=left;spacingLeft=6;fontStyle=1;overflow=hidden;" vertex="1" parent="K3WVoDSNx91NNgabxfpI-224">
          <mxGeometry width="165" height="30" as="geometry">
            <mxRectangle width="165" height="30" as="alternateBounds" />
          </mxGeometry>
        </mxCell>
        <mxCell id="K3WVoDSNx91NNgabxfpI-228" style="shape=partialRectangle;collapsible=0;dropTarget=0;pointerEvents=0;fillColor=none;top=0;left=0;bottom=1;right=0;points=[[0,0.5],[1,0.5]];portConstraint=eastwest;" vertex="1" parent="K3WVoDSNx91NNgabxfpI-223">
          <mxGeometry y="60" width="165" height="30" as="geometry" />
        </mxCell>
        <mxCell id="K3WVoDSNx91NNgabxfpI-230" value="ID do usuário" style="shape=partialRectangle;connectable=0;fillColor=default;top=0;left=0;bottom=0;right=0;align=left;spacingLeft=6;fontStyle=1;overflow=hidden;" vertex="1" parent="K3WVoDSNx91NNgabxfpI-228">
          <mxGeometry width="165" height="30" as="geometry">
            <mxRectangle width="165" height="30" as="alternateBounds" />
          </mxGeometry>
        </mxCell>
        <mxCell id="K3WVoDSNx91NNgabxfpI-232" value="" style="edgeStyle=orthogonalEdgeStyle;fontSize=12;html=1;endArrow=ERzeroToMany;endFill=1;startArrow=ERzeroToMany;rounded=0;exitX=1;exitY=0.5;exitDx=0;exitDy=0;entryX=0;entryY=0.5;entryDx=0;entryDy=0;" edge="1" parent="K3WVoDSNx91NNgabxfpI-42" source="K3WVoDSNx91NNgabxfpI-50" target="K3WVoDSNx91NNgabxfpI-228">
          <mxGeometry width="100" height="100" relative="1" as="geometry">
            <mxPoint x="310" y="340" as="sourcePoint" />
            <mxPoint x="430" y="100" as="targetPoint" />
          </mxGeometry>
        </mxCell>
        <mxCell id="K3WVoDSNx91NNgabxfpI-233" value="" style="fontSize=12;html=1;endArrow=ERmandOne;startArrow=ERmandOne;rounded=0;exitX=0.5;exitY=0;exitDx=0;exitDy=0;" edge="1" parent="K3WVoDSNx91NNgabxfpI-42">
          <mxGeometry width="100" height="100" relative="1" as="geometry">
            <mxPoint x="366" y="182" as="sourcePoint" />
            <mxPoint x="366" y="132" as="targetPoint" />
          </mxGeometry>
        </mxCell>
        <mxCell id="K3WVoDSNx91NNgabxfpI-234" value="" style="fontSize=12;html=1;endArrow=ERzeroToOne;startArrow=ERmandOne;rounded=0;entryX=1;entryY=0.5;entryDx=0;entryDy=0;edgeStyle=orthogonalEdgeStyle;" edge="1" parent="K3WVoDSNx91NNgabxfpI-42" source="K3WVoDSNx91NNgabxfpI-211" target="K3WVoDSNx91NNgabxfpI-58">
          <mxGeometry width="100" height="100" relative="1" as="geometry">
            <mxPoint x="240" y="400" as="sourcePoint" />
            <mxPoint x="395" y="370" as="targetPoint" />
            <Array as="points" />
          </mxGeometry>
        </mxCell>
        <mxCell id="K3WVoDSNx91NNgabxfpI-235" value="" style="edgeStyle=orthogonalEdgeStyle;fontSize=12;html=1;endArrow=ERoneToMany;startArrow=ERmandOne;rounded=0;exitX=1;exitY=0.5;exitDx=0;exitDy=0;entryX=1;entryY=0.5;entryDx=0;entryDy=0;" edge="1" parent="K3WVoDSNx91NNgabxfpI-42" source="K3WVoDSNx91NNgabxfpI-116" target="K3WVoDSNx91NNgabxfpI-142">
          <mxGeometry width="100" height="100" relative="1" as="geometry">
            <mxPoint x="629" y="710" as="sourcePoint" />
            <mxPoint x="729" y="610" as="targetPoint" />
            <Array as="points">
              <mxPoint x="500" y="575" />
              <mxPoint x="500" y="885" />
            </Array>
          </mxGeometry>
        </mxCell>
        <mxCell id="K3WVoDSNx91NNgabxfpI-236" value="" style="fontSize=12;html=1;endArrow=ERzeroToMany;startArrow=ERmandOne;rounded=0;" edge="1" parent="K3WVoDSNx91NNgabxfpI-42">
          <mxGeometry width="100" height="100" relative="1" as="geometry">
            <mxPoint x="353.5" y="470" as="sourcePoint" />
            <mxPoint x="353.5" y="422" as="targetPoint" />
          </mxGeometry>
        </mxCell>
        <mxCell id="K3WVoDSNx91NNgabxfpI-237" value="" style="fontSize=12;html=1;endArrow=ERzeroToMany;startArrow=ERzeroToOne;rounded=0;exitX=1;exitY=0.5;exitDx=0;exitDy=0;entryX=1;entryY=0.5;entryDx=0;entryDy=0;edgeStyle=orthogonalEdgeStyle;" edge="1" parent="K3WVoDSNx91NNgabxfpI-42" source="K3WVoDSNx91NNgabxfpI-121" target="K3WVoDSNx91NNgabxfpI-215">
          <mxGeometry width="100" height="100" relative="1" as="geometry">
            <mxPoint x="759" y="500" as="sourcePoint" />
            <mxPoint x="589" y="410" as="targetPoint" />
            <Array as="points">
              <mxPoint x="510" y="665" />
              <mxPoint x="510" y="377" />
            </Array>
          </mxGeometry>
        </mxCell>
        <mxCell id="K3WVoDSNx91NNgabxfpI-238" value="" style="edgeStyle=orthogonalEdgeStyle;fontSize=12;html=1;endArrow=ERzeroToMany;startArrow=ERmandOne;rounded=0;entryX=1;entryY=0.5;entryDx=0;entryDy=0;exitX=1;exitY=0.5;exitDx=0;exitDy=0;" edge="1" parent="K3WVoDSNx91NNgabxfpI-42" source="K3WVoDSNx91NNgabxfpI-150" target="K3WVoDSNx91NNgabxfpI-207">
          <mxGeometry width="100" height="100" relative="1" as="geometry">
            <mxPoint x="839" y="690" as="sourcePoint" />
            <mxPoint x="729" y="520" as="targetPoint" />
            <Array as="points">
              <mxPoint x="520" y="945" />
              <mxPoint x="520" y="317" />
            </Array>
          </mxGeometry>
        </mxCell>
        <mxCell id="K3WVoDSNx91NNgabxfpI-239" value="" style="edgeStyle=orthogonalEdgeStyle;fontSize=12;html=1;endArrow=ERzeroToMany;endFill=1;rounded=0;entryX=1;entryY=0.5;entryDx=0;entryDy=0;exitX=0;exitY=0.5;exitDx=0;exitDy=0;" edge="1" parent="1" source="K3WVoDSNx91NNgabxfpI-176" target="K3WVoDSNx91NNgabxfpI-3">
          <mxGeometry width="100" height="100" relative="1" as="geometry">
            <mxPoint x="240" y="370" as="sourcePoint" />
            <mxPoint x="190" y="221" as="targetPoint" />
          </mxGeometry>
        </mxCell>
      </root>
    </mxGraphModel>
  </diagram>
</mxfile>
